<svg width="20" height="21" viewBox="0 0 20 21" fill="none" xmlns="http://www.w3.org/2000/svg">
<path d="M8.46534 1.86171L9.96385 10.8305L11.4624 1.86171C11.5529 1.32208 11.138 0.830383 10.5929 0.830383H9.33398C8.78974 0.830383 8.37477 1.32208 8.46534 1.86171Z" fill="#403D36"/>
<path d="M2.58558 5.55281L9.9637 10.8309L4.70491 3.42569C4.38874 2.98026 3.74899 2.92654 3.36365 3.31329L2.4736 4.20662C2.08827 4.59337 2.14179 5.23547 2.58558 5.55281Z" fill="#403D36"/>
<path d="M1.02755 12.3345L9.96348 10.8305L1.02755 9.32646C0.489899 9.23556 0 9.65207 0 10.1991V11.4627C0 12.0089 0.489899 12.4254 1.02755 12.3345Z" fill="#403D36"/>
<path d="M4.70491 18.2359L9.9637 10.8307L2.58558 16.1088C2.14179 16.4262 2.08827 17.0683 2.4736 17.455L3.36365 18.3483C3.74899 18.7351 4.38874 18.6814 4.70491 18.2359Z" fill="#403D36"/>
<path d="M11.4624 19.7985L9.96385 10.8298L8.46533 19.7985C8.37476 20.3382 8.78974 20.8299 9.3348 20.8299H10.5937C11.1388 20.8299 11.5529 20.3382 11.4624 19.7985Z" fill="#403D36"/>
<path d="M17.3418 16.1079L9.96362 10.8298L15.2224 18.235C15.5386 18.6804 16.1783 18.7342 16.5637 18.3474L17.4537 17.4541C17.8391 17.0673 17.7864 16.4261 17.3418 16.1079Z" fill="#403D36"/>
<path d="M18.8995 9.32628L9.96362 10.8303L18.8995 12.3343C19.4372 12.4252 19.9271 12.0087 19.9271 11.4617V10.1981C19.9271 9.65188 19.4372 9.2362 18.8995 9.32628Z" fill="#403D36"/>
<path d="M15.2224 3.42477L9.96362 10.83L17.3418 5.55189C17.7855 5.23456 17.8391 4.59245 17.4537 4.2057L16.5637 3.31237C16.1783 2.92563 15.5386 2.97935 15.2224 3.42477Z" fill="#403D36"/>
</svg>
