<svg width="31" height="32" viewBox="0 0 31 32" fill="none" xmlns="http://www.w3.org/2000/svg">
<path d="M26.4189 27.3014H21.8301V19.9294C21.8301 18.1717 21.7992 15.9085 19.4428 15.9085C17.0529 15.9085 16.6864 17.825 16.6864 19.7997V27.3014H12.0976V12.1418H16.5032V14.2144H16.5651C17.4633 12.642 19.1357 11.6997 20.9113 11.7659C25.5621 11.7659 26.4215 14.9026 26.4215 18.987L26.4189 27.2988V27.3014ZM6.92037 10.0691C6.21547 10.0656 5.54036 9.77708 5.04167 9.2661C4.54298 8.75512 4.26097 8.06298 4.2569 7.34001C4.2569 5.84178 5.4596 4.60826 6.92037 4.60826C8.38115 4.60826 9.58126 5.84178 9.58385 7.34001C9.58385 8.83824 8.38115 10.0691 6.92037 10.0691ZM9.21478 27.3014H4.62081V12.1418H9.21478V27.3014ZM28.703 0.23533H2.3135C1.71512 0.231765 1.13955 0.470546 0.711864 0.899782C0.284175 1.32902 0.0389286 1.91402 0.0294189 2.52767V29.7076C0.0389286 30.3212 0.284175 30.9062 0.711864 31.3355C1.13955 31.7647 1.71512 32.0035 2.3135 31.9999H28.7056C29.3054 32.0049 29.8828 31.7669 30.3124 31.3377C30.7421 30.9084 30.9891 30.3226 31 29.7076V2.52503C30.9891 1.91045 30.7419 1.3252 30.3121 0.896797C29.8823 0.468399 29.3049 0.231589 28.7056 0.237977L28.703 0.23533Z" fill="#385C78"/>
</svg>
