<svg width="51" height="51" viewBox="0 0 51 51" fill="none" xmlns="http://www.w3.org/2000/svg">
<path d="M38.9672 38.9672H33.2998V30.09C33.2998 27.9735 33.2616 25.2482 30.3514 25.2482C27.3998 25.2482 26.9471 27.5559 26.9471 29.9338V38.9672H21.2798V20.7124H26.7208V23.2082H26.7973C27.9066 21.3148 29.9721 20.18 32.1651 20.2597C37.9089 20.2597 38.9704 24.0369 38.9704 28.9552L38.9672 38.964V38.9672ZM14.8856 18.2165C14.015 18.2124 13.1812 17.8649 12.5653 17.2496C11.9494 16.6343 11.6012 15.8008 11.5961 14.9302C11.5961 13.1261 13.0815 11.6407 14.8856 11.6407C16.6898 11.6407 18.1719 13.1261 18.1751 14.9302C18.1751 16.7344 16.6898 18.2165 14.8856 18.2165ZM17.7193 38.9672H12.0456V20.7124H17.7193V38.9672ZM41.7881 6.37499H9.19594C8.45692 6.37069 7.74606 6.65823 7.21785 7.1751C6.68963 7.69197 6.38674 8.39642 6.375 9.13536V41.8646C6.38674 42.6035 6.68963 43.308 7.21785 43.8249C7.74606 44.3417 8.45692 44.6293 9.19594 44.625H41.7913C42.532 44.631 43.2452 44.3444 43.7758 43.8275C44.3064 43.3106 44.6116 42.6052 44.625 41.8646V9.13217C44.6116 8.39212 44.3062 7.68737 43.7754 7.17151C43.2446 6.65564 42.5314 6.37048 41.7913 6.37817L41.7881 6.37499Z" fill="#385C78"/>
</svg>
