<svg width="115" height="29" viewBox="0 0 115 29" fill="none" xmlns="http://www.w3.org/2000/svg">
<mask id="path-1-inside-1_191_517" fill="white">
<path d="M27.9135 2.46922C26.1001 0.746594 23.4108 0.571411 19.2463 0.571411H11.1016C6.93711 0.571411 4.24783 0.731995 2.43449 2.46922C0.0986629 4.6882 0.421376 8.39623 0.421376 14.5714C0.421376 20.7466 0.160132 24.4546 2.49596 26.6736C4.3093 28.3962 7.09078 28.5714 11.1631 28.5714H19.1387C23.3033 28.5714 26.0694 28.4108 27.8981 26.6736C30.2493 24.4546 29.8958 20.659 29.8958 14.5714C29.8958 8.48382 30.2493 4.6882 27.9135 2.46922ZM28.605 16.7174C28.605 21.2429 28.6972 24.294 26.9607 25.8561C25.5776 27.17 23.3186 27.4181 19.1541 27.4181H11.0863C6.92174 27.4181 4.75495 27.17 3.3719 25.8561C1.63539 24.2064 1.63539 21.2429 1.63539 16.3086V12.5276C1.63539 7.84148 1.54319 5.03856 3.27969 3.38893C4.66275 2.07506 6.92174 1.82688 11.0863 1.82688H19.2309C23.3955 1.82688 25.6391 2.07506 27.0375 3.38893C28.6818 4.95097 28.605 8.00207 28.605 12.5276V16.7174ZM18.2013 11.5203L15.8655 13.2575V6.42542C15.8655 6.10426 15.5889 5.84148 15.2508 5.84148C15.2201 5.84148 15.2047 5.84148 15.174 5.84148C15.0049 5.84148 14.9127 5.92908 14.7437 6.00207L7.36739 11.6079C6.50682 12.1772 5.96897 13.0824 5.89213 14.0751C5.76919 15.0824 6.09191 16.0897 6.7527 16.878C7.35202 17.6955 8.30479 18.2064 9.34977 18.2794C10.4101 18.3962 11.4705 18.0897 12.3003 17.4619L14.5439 15.8269V22.659C14.5285 22.9948 14.7898 23.2867 15.1432 23.3159C15.3123 23.3159 15.4045 23.2283 15.5735 23.1554L23.1189 17.4765C24.8246 16.1918 25.132 13.8561 23.8104 12.2064C22.4273 10.586 19.9378 10.294 18.1706 11.5495H18.2013V11.5203ZM14.5746 14.2356L11.5319 16.5422C10.9787 16.9802 10.2411 17.1554 9.53418 17.0386C8.85802 16.951 8.22796 16.6298 7.79768 16.1335C7.35202 15.5933 7.13688 14.9218 7.18298 14.2356C7.27519 13.5933 7.61327 13.0094 8.13576 12.586L14.5439 7.7247L14.5746 14.2356ZM23.334 14.8196C23.2418 15.4619 22.9037 16.0605 22.3659 16.4692L15.8655 21.3159V14.8196L18.9851 12.4254C20.0915 11.5495 21.7358 11.7101 22.6425 12.7612C22.6578 12.7904 22.6886 12.8196 22.7039 12.8342C23.1957 13.3889 23.4108 14.1043 23.334 14.8196Z"/>
<path d="M64.4292 9.59241C62.6773 9.34424 60.91 9.95738 59.7575 11.242H59.6653V3.82599H56.0232V24.8187H59.6653V15.7676C59.7114 13.9428 61.2942 12.5121 63.1998 12.5413C65.0592 12.5851 66.5498 14.0012 66.5959 15.7676V24.9063H70.238V15.1107C70.2687 13.5924 69.6387 12.1326 68.5015 11.0815C67.3797 10.1326 65.9352 9.60701 64.4292 9.59241ZM98.8365 9.68C97.8069 9.51942 96.7466 9.54862 95.717 9.7676C94.6873 10.0304 93.7499 10.5705 93.0277 11.3296H92.9508V10.0158H89.3088L89.2166 24.9063H92.874L92.9662 17.6654C92.9662 16.9501 93.043 16.2202 93.2275 15.5194C93.8421 13.1253 96.7005 12.6435 98.8673 12.9647L98.8365 9.68ZM114.265 15.1107C113.789 13.0231 112.314 11.2566 110.27 10.3369C107.995 9.32964 105.398 9.27125 103.078 10.1764C99.6049 11.5486 98.3909 15.1691 98.3909 17.4172C98.3909 20.4537 99.9737 25.315 106.536 25.315C109.44 25.3734 112.16 24.0012 113.743 21.6946L111.484 19.972C110.884 20.7895 110.07 21.4756 109.148 21.9428C108.318 22.2785 107.442 22.4391 106.551 22.4391C105.291 22.4391 104.077 21.972 103.17 21.1253C102.463 20.4683 102.064 19.5924 102.048 18.6581H114.357C114.527 17.4756 114.496 16.2785 114.265 15.1107ZM102.125 16.3515C102.279 14.0304 104.369 12.2785 106.812 12.3953C107.888 12.4537 108.917 12.8917 109.67 13.6362C110.393 14.3661 110.762 15.3442 110.715 16.3515H102.125ZM53.0727 17.2566C52.5349 16.9209 51.9509 16.6581 51.3362 16.4829C50.1529 16.1764 47.4329 15.5486 46.6492 15.3442C45.9884 15.2129 45.3737 14.9647 44.8205 14.5997C44.2212 14.0888 44.1597 13.2129 44.6976 12.6435C44.8666 12.4537 45.0971 12.3223 45.343 12.2493C47.3254 11.6362 49.5229 12.1326 50.9828 13.5632L53.2418 11.9282C51.244 8.96468 45.8655 8.7165 43.0994 10.2785C41.6395 11.0085 40.7789 12.4975 40.9326 14.0596C41.1016 15.7238 42.3464 17.1107 44.0521 17.5194C45.7886 18.0596 48.2935 18.4829 49.3385 18.7603C50.3834 19.0377 51.075 19.5778 51.1364 20.2931C51.2133 22.8333 46.8029 22.5413 45.4505 21.8844C44.6514 21.4902 44.006 20.8917 43.545 20.1618L41.117 22.0158C41.8853 23.3296 43.2069 24.2931 44.759 24.6435C47.479 25.3296 51.5975 25.3004 53.7489 22.6143C54.3175 21.9282 54.6095 21.0669 54.548 20.2056C54.6402 19.0377 54.0716 17.9136 53.0727 17.2566ZM79.8733 25.3004C81.118 25.2858 82.3474 25.0669 83.5153 24.6435C85.4362 23.9136 86.8961 22.3953 87.4955 20.5267C88.187 18.4975 88.187 16.3077 87.4955 14.2639C86.7578 12.4245 85.2518 10.9647 83.3309 10.2347C81.0873 9.50482 78.6439 9.50482 76.4003 10.2347C74.4794 10.9647 72.9734 12.4391 72.2357 14.2639C71.5442 16.2931 71.5442 18.4829 72.2357 20.5267C72.8351 22.3953 74.3103 23.9136 76.2159 24.6435C77.3991 25.0669 78.6285 25.2858 79.8733 25.3004ZM76.4156 21.1107C75.1094 19.7092 75.0326 17.1545 75.5551 15.4318C76.3695 13.1545 78.9666 11.9428 81.3485 12.7165C82.7009 13.1545 83.7612 14.1618 84.2069 15.4318C84.7293 17.1545 84.6371 19.7092 83.3463 21.1107C81.3946 22.8625 78.3519 22.8625 76.4156 21.1107Z"/>
</mask>
<path d="M27.9135 2.46922C26.1001 0.746594 23.4108 0.571411 19.2463 0.571411H11.1016C6.93711 0.571411 4.24783 0.731995 2.43449 2.46922C0.0986629 4.6882 0.421376 8.39623 0.421376 14.5714C0.421376 20.7466 0.160132 24.4546 2.49596 26.6736C4.3093 28.3962 7.09078 28.5714 11.1631 28.5714H19.1387C23.3033 28.5714 26.0694 28.4108 27.8981 26.6736C30.2493 24.4546 29.8958 20.659 29.8958 14.5714C29.8958 8.48382 30.2493 4.6882 27.9135 2.46922ZM28.605 16.7174C28.605 21.2429 28.6972 24.294 26.9607 25.8561C25.5776 27.17 23.3186 27.4181 19.1541 27.4181H11.0863C6.92174 27.4181 4.75495 27.17 3.3719 25.8561C1.63539 24.2064 1.63539 21.2429 1.63539 16.3086V12.5276C1.63539 7.84148 1.54319 5.03856 3.27969 3.38893C4.66275 2.07506 6.92174 1.82688 11.0863 1.82688H19.2309C23.3955 1.82688 25.6391 2.07506 27.0375 3.38893C28.6818 4.95097 28.605 8.00207 28.605 12.5276V16.7174ZM18.2013 11.5203L15.8655 13.2575V6.42542C15.8655 6.10426 15.5889 5.84148 15.2508 5.84148C15.2201 5.84148 15.2047 5.84148 15.174 5.84148C15.0049 5.84148 14.9127 5.92908 14.7437 6.00207L7.36739 11.6079C6.50682 12.1772 5.96897 13.0824 5.89213 14.0751C5.76919 15.0824 6.09191 16.0897 6.7527 16.878C7.35202 17.6955 8.30479 18.2064 9.34977 18.2794C10.4101 18.3962 11.4705 18.0897 12.3003 17.4619L14.5439 15.8269V22.659C14.5285 22.9948 14.7898 23.2867 15.1432 23.3159C15.3123 23.3159 15.4045 23.2283 15.5735 23.1554L23.1189 17.4765C24.8246 16.1918 25.132 13.8561 23.8104 12.2064C22.4273 10.586 19.9378 10.294 18.1706 11.5495H18.2013V11.5203ZM14.5746 14.2356L11.5319 16.5422C10.9787 16.9802 10.2411 17.1554 9.53418 17.0386C8.85802 16.951 8.22796 16.6298 7.79768 16.1335C7.35202 15.5933 7.13688 14.9218 7.18298 14.2356C7.27519 13.5933 7.61327 13.0094 8.13576 12.586L14.5439 7.7247L14.5746 14.2356ZM23.334 14.8196C23.2418 15.4619 22.9037 16.0605 22.3659 16.4692L15.8655 21.3159V14.8196L18.9851 12.4254C20.0915 11.5495 21.7358 11.7101 22.6425 12.7612C22.6578 12.7904 22.6886 12.8196 22.7039 12.8342C23.1957 13.3889 23.4108 14.1043 23.334 14.8196Z" fill="#8D8D8D"/>
<path d="M64.4292 9.59241C62.6773 9.34424 60.91 9.95738 59.7575 11.242H59.6653V3.82599H56.0232V24.8187H59.6653V15.7676C59.7114 13.9428 61.2942 12.5121 63.1998 12.5413C65.0592 12.5851 66.5498 14.0012 66.5959 15.7676V24.9063H70.238V15.1107C70.2687 13.5924 69.6387 12.1326 68.5015 11.0815C67.3797 10.1326 65.9352 9.60701 64.4292 9.59241ZM98.8365 9.68C97.8069 9.51942 96.7466 9.54862 95.717 9.7676C94.6873 10.0304 93.7499 10.5705 93.0277 11.3296H92.9508V10.0158H89.3088L89.2166 24.9063H92.874L92.9662 17.6654C92.9662 16.9501 93.043 16.2202 93.2275 15.5194C93.8421 13.1253 96.7005 12.6435 98.8673 12.9647L98.8365 9.68ZM114.265 15.1107C113.789 13.0231 112.314 11.2566 110.27 10.3369C107.995 9.32964 105.398 9.27125 103.078 10.1764C99.6049 11.5486 98.3909 15.1691 98.3909 17.4172C98.3909 20.4537 99.9737 25.315 106.536 25.315C109.44 25.3734 112.16 24.0012 113.743 21.6946L111.484 19.972C110.884 20.7895 110.07 21.4756 109.148 21.9428C108.318 22.2785 107.442 22.4391 106.551 22.4391C105.291 22.4391 104.077 21.972 103.17 21.1253C102.463 20.4683 102.064 19.5924 102.048 18.6581H114.357C114.527 17.4756 114.496 16.2785 114.265 15.1107ZM102.125 16.3515C102.279 14.0304 104.369 12.2785 106.812 12.3953C107.888 12.4537 108.917 12.8917 109.67 13.6362C110.393 14.3661 110.762 15.3442 110.715 16.3515H102.125ZM53.0727 17.2566C52.5349 16.9209 51.9509 16.6581 51.3362 16.4829C50.1529 16.1764 47.4329 15.5486 46.6492 15.3442C45.9884 15.2129 45.3737 14.9647 44.8205 14.5997C44.2212 14.0888 44.1597 13.2129 44.6976 12.6435C44.8666 12.4537 45.0971 12.3223 45.343 12.2493C47.3254 11.6362 49.5229 12.1326 50.9828 13.5632L53.2418 11.9282C51.244 8.96468 45.8655 8.7165 43.0994 10.2785C41.6395 11.0085 40.7789 12.4975 40.9326 14.0596C41.1016 15.7238 42.3464 17.1107 44.0521 17.5194C45.7886 18.0596 48.2935 18.4829 49.3385 18.7603C50.3834 19.0377 51.075 19.5778 51.1364 20.2931C51.2133 22.8333 46.8029 22.5413 45.4505 21.8844C44.6514 21.4902 44.006 20.8917 43.545 20.1618L41.117 22.0158C41.8853 23.3296 43.2069 24.2931 44.759 24.6435C47.479 25.3296 51.5975 25.3004 53.7489 22.6143C54.3175 21.9282 54.6095 21.0669 54.548 20.2056C54.6402 19.0377 54.0716 17.9136 53.0727 17.2566ZM79.8733 25.3004C81.118 25.2858 82.3474 25.0669 83.5153 24.6435C85.4362 23.9136 86.8961 22.3953 87.4955 20.5267C88.187 18.4975 88.187 16.3077 87.4955 14.2639C86.7578 12.4245 85.2518 10.9647 83.3309 10.2347C81.0873 9.50482 78.6439 9.50482 76.4003 10.2347C74.4794 10.9647 72.9734 12.4391 72.2357 14.2639C71.5442 16.2931 71.5442 18.4829 72.2357 20.5267C72.8351 22.3953 74.3103 23.9136 76.2159 24.6435C77.3991 25.0669 78.6285 25.2858 79.8733 25.3004ZM76.4156 21.1107C75.1094 19.7092 75.0326 17.1545 75.5551 15.4318C76.3695 13.1545 78.9666 11.9428 81.3485 12.7165C82.7009 13.1545 83.7612 14.1618 84.2069 15.4318C84.7293 17.1545 84.6371 19.7092 83.3463 21.1107C81.3946 22.8625 78.3519 22.8625 76.4156 21.1107Z" fill="#8D8D8D"/>
<path d="M27.9135 2.46922C26.1001 0.746594 23.4108 0.571411 19.2463 0.571411H11.1016C6.93711 0.571411 4.24783 0.731995 2.43449 2.46922C0.0986629 4.6882 0.421376 8.39623 0.421376 14.5714C0.421376 20.7466 0.160132 24.4546 2.49596 26.6736C4.3093 28.3962 7.09078 28.5714 11.1631 28.5714H19.1387C23.3033 28.5714 26.0694 28.4108 27.8981 26.6736C30.2493 24.4546 29.8958 20.659 29.8958 14.5714C29.8958 8.48382 30.2493 4.6882 27.9135 2.46922ZM28.605 16.7174C28.605 21.2429 28.6972 24.294 26.9607 25.8561C25.5776 27.17 23.3186 27.4181 19.1541 27.4181H11.0863C6.92174 27.4181 4.75495 27.17 3.3719 25.8561C1.63539 24.2064 1.63539 21.2429 1.63539 16.3086V12.5276C1.63539 7.84148 1.54319 5.03856 3.27969 3.38893C4.66275 2.07506 6.92174 1.82688 11.0863 1.82688H19.2309C23.3955 1.82688 25.6391 2.07506 27.0375 3.38893C28.6818 4.95097 28.605 8.00207 28.605 12.5276V16.7174ZM18.2013 11.5203L15.8655 13.2575V6.42542C15.8655 6.10426 15.5889 5.84148 15.2508 5.84148C15.2201 5.84148 15.2047 5.84148 15.174 5.84148C15.0049 5.84148 14.9127 5.92908 14.7437 6.00207L7.36739 11.6079C6.50682 12.1772 5.96897 13.0824 5.89213 14.0751C5.76919 15.0824 6.09191 16.0897 6.7527 16.878C7.35202 17.6955 8.30479 18.2064 9.34977 18.2794C10.4101 18.3962 11.4705 18.0897 12.3003 17.4619L14.5439 15.8269V22.659C14.5285 22.9948 14.7898 23.2867 15.1432 23.3159C15.3123 23.3159 15.4045 23.2283 15.5735 23.1554L23.1189 17.4765C24.8246 16.1918 25.132 13.8561 23.8104 12.2064C22.4273 10.586 19.9378 10.294 18.1706 11.5495H18.2013V11.5203ZM14.5746 14.2356L11.5319 16.5422C10.9787 16.9802 10.2411 17.1554 9.53418 17.0386C8.85802 16.951 8.22796 16.6298 7.79768 16.1335C7.35202 15.5933 7.13688 14.9218 7.18298 14.2356C7.27519 13.5933 7.61327 13.0094 8.13576 12.586L14.5439 7.7247L14.5746 14.2356ZM23.334 14.8196C23.2418 15.4619 22.9037 16.0605 22.3659 16.4692L15.8655 21.3159V14.8196L18.9851 12.4254C20.0915 11.5495 21.7358 11.7101 22.6425 12.7612C22.6578 12.7904 22.6886 12.8196 22.7039 12.8342C23.1957 13.3889 23.4108 14.1043 23.334 14.8196Z" stroke="#8D8D8D" stroke-width="0.307346" mask="url(#path-1-inside-1_191_517)"/>
<path d="M64.4292 9.59241C62.6773 9.34424 60.91 9.95738 59.7575 11.242H59.6653V3.82599H56.0232V24.8187H59.6653V15.7676C59.7114 13.9428 61.2942 12.5121 63.1998 12.5413C65.0592 12.5851 66.5498 14.0012 66.5959 15.7676V24.9063H70.238V15.1107C70.2687 13.5924 69.6387 12.1326 68.5015 11.0815C67.3797 10.1326 65.9352 9.60701 64.4292 9.59241ZM98.8365 9.68C97.8069 9.51942 96.7466 9.54862 95.717 9.7676C94.6873 10.0304 93.7499 10.5705 93.0277 11.3296H92.9508V10.0158H89.3088L89.2166 24.9063H92.874L92.9662 17.6654C92.9662 16.9501 93.043 16.2202 93.2275 15.5194C93.8421 13.1253 96.7005 12.6435 98.8673 12.9647L98.8365 9.68ZM114.265 15.1107C113.789 13.0231 112.314 11.2566 110.27 10.3369C107.995 9.32964 105.398 9.27125 103.078 10.1764C99.6049 11.5486 98.3909 15.1691 98.3909 17.4172C98.3909 20.4537 99.9737 25.315 106.536 25.315C109.44 25.3734 112.16 24.0012 113.743 21.6946L111.484 19.972C110.884 20.7895 110.07 21.4756 109.148 21.9428C108.318 22.2785 107.442 22.4391 106.551 22.4391C105.291 22.4391 104.077 21.972 103.17 21.1253C102.463 20.4683 102.064 19.5924 102.048 18.6581H114.357C114.527 17.4756 114.496 16.2785 114.265 15.1107ZM102.125 16.3515C102.279 14.0304 104.369 12.2785 106.812 12.3953C107.888 12.4537 108.917 12.8917 109.67 13.6362C110.393 14.3661 110.762 15.3442 110.715 16.3515H102.125ZM53.0727 17.2566C52.5349 16.9209 51.9509 16.6581 51.3362 16.4829C50.1529 16.1764 47.4329 15.5486 46.6492 15.3442C45.9884 15.2129 45.3737 14.9647 44.8205 14.5997C44.2212 14.0888 44.1597 13.2129 44.6976 12.6435C44.8666 12.4537 45.0971 12.3223 45.343 12.2493C47.3254 11.6362 49.5229 12.1326 50.9828 13.5632L53.2418 11.9282C51.244 8.96468 45.8655 8.7165 43.0994 10.2785C41.6395 11.0085 40.7789 12.4975 40.9326 14.0596C41.1016 15.7238 42.3464 17.1107 44.0521 17.5194C45.7886 18.0596 48.2935 18.4829 49.3385 18.7603C50.3834 19.0377 51.075 19.5778 51.1364 20.2931C51.2133 22.8333 46.8029 22.5413 45.4505 21.8844C44.6514 21.4902 44.006 20.8917 43.545 20.1618L41.117 22.0158C41.8853 23.3296 43.2069 24.2931 44.759 24.6435C47.479 25.3296 51.5975 25.3004 53.7489 22.6143C54.3175 21.9282 54.6095 21.0669 54.548 20.2056C54.6402 19.0377 54.0716 17.9136 53.0727 17.2566ZM79.8733 25.3004C81.118 25.2858 82.3474 25.0669 83.5153 24.6435C85.4362 23.9136 86.8961 22.3953 87.4955 20.5267C88.187 18.4975 88.187 16.3077 87.4955 14.2639C86.7578 12.4245 85.2518 10.9647 83.3309 10.2347C81.0873 9.50482 78.6439 9.50482 76.4003 10.2347C74.4794 10.9647 72.9734 12.4391 72.2357 14.2639C71.5442 16.2931 71.5442 18.4829 72.2357 20.5267C72.8351 22.3953 74.3103 23.9136 76.2159 24.6435C77.3991 25.0669 78.6285 25.2858 79.8733 25.3004ZM76.4156 21.1107C75.1094 19.7092 75.0326 17.1545 75.5551 15.4318C76.3695 13.1545 78.9666 11.9428 81.3485 12.7165C82.7009 13.1545 83.7612 14.1618 84.2069 15.4318C84.7293 17.1545 84.6371 19.7092 83.3463 21.1107C81.3946 22.8625 78.3519 22.8625 76.4156 21.1107Z" stroke="#8D8D8D" stroke-width="0.307346" mask="url(#path-1-inside-1_191_517)"/>
</svg>
