<svg width="100" height="25" viewBox="0 0 100 25" fill="none" xmlns="http://www.w3.org/2000/svg">
<path d="M14.9868 12.2443C14.8021 11.7848 14.5676 11.3248 14.2759 10.8878C14.4919 10.7329 14.6469 10.577 14.7437 10.4679C14.8397 10.3595 14.9176 10.2527 14.9819 10.1564L14.9868 12.2443Z" fill="#8D8D8D" stroke="#8D8D8D" stroke-width="5.5297"/>
<path d="M12.6023 8.59255C12.6248 8.58166 12.6473 8.61427 12.6686 8.60882C12.6799 8.60882 12.6855 8.59799 12.6968 8.59255C12.7136 8.5871 12.7248 8.59255 12.7417 8.59255C12.781 8.59799 12.7866 8.60883 12.7641 8.654C12.7602 8.65945 12.7192 8.65949 12.7136 8.65949C12.6799 8.65949 12.7024 8.66494 12.68 8.63773C12.6766 8.63228 12.6686 8.63224 12.6686 8.63224C12.6658 8.62136 12.6798 8.60496 12.6854 8.59952C12.6894 8.58864 12.69 8.57789 12.6968 8.57245C12.708 8.56156 12.7613 8.567 12.7748 8.57245L12.7693 8.62892C12.7524 8.62892 12.7523 8.62348 12.7298 8.62892C12.7242 8.62919 12.7187 8.63437 12.713 8.62892C12.7018 8.62348 12.6962 8.61809 12.6906 8.61264C12.6794 8.61264 12.6682 8.61268 12.6738 8.61813C12.6732 8.61268 12.676 8.61813 12.6738 8.61813C12.676 8.6184 12.6815 8.62361 12.6832 8.62361C12.6883 8.61816 12.6889 8.61261 12.6945 8.60716C12.6973 8.60716 12.7001 8.60771 12.7057 8.60716C12.7394 8.60716 12.7018 8.60771 12.7338 8.60716C12.7338 8.60743 12.7355 8.607 12.7338 8.60716C12.7366 8.67574 12.722 8.63967 12.7501 8.656C12.7523 8.656 12.7455 8.656 12.7444 8.656C12.7276 8.656 12.7164 8.66144 12.6995 8.656C12.6883 8.65055 12.6826 8.63955 12.6714 8.63955C12.6489 8.63411 12.6266 8.66688 12.6052 8.656V8.59886L12.6023 8.59255Z" fill="#8D8D8D"/>
<path d="M12.6738 8.61813C12.6682 8.61268 12.6794 8.61264 12.6906 8.61264C12.6962 8.61809 12.7018 8.62348 12.713 8.62892C12.7187 8.63437 12.7242 8.62919 12.7298 8.62892C12.7523 8.62348 12.7524 8.62892 12.7693 8.62892L12.7748 8.57245C12.7613 8.567 12.708 8.56156 12.6968 8.57245C12.69 8.57789 12.6894 8.58864 12.6854 8.59952C12.6798 8.60496 12.6658 8.62136 12.6686 8.63224C12.6686 8.63224 12.6766 8.63228 12.68 8.63773C12.7024 8.66494 12.6799 8.65949 12.7136 8.65949C12.7192 8.65949 12.7602 8.65945 12.7641 8.654C12.7866 8.60883 12.781 8.59799 12.7417 8.59255C12.7248 8.59255 12.7136 8.5871 12.6968 8.59255C12.6855 8.59799 12.6799 8.60882 12.6686 8.60882C12.6473 8.61427 12.6248 8.58166 12.6023 8.59255L12.6052 8.59886V8.656C12.6266 8.66688 12.6489 8.63411 12.6714 8.63955C12.6826 8.63955 12.6883 8.65055 12.6995 8.656C12.7164 8.66144 12.7276 8.656 12.7444 8.656C12.7455 8.656 12.7523 8.656 12.7501 8.656C12.722 8.63967 12.7366 8.67574 12.7338 8.60716M12.6738 8.61813C12.676 8.61813 12.6732 8.61268 12.6738 8.61813ZM12.6738 8.61813C12.676 8.6184 12.6815 8.62361 12.6832 8.62361C12.6883 8.61816 12.6889 8.61261 12.6945 8.60716C12.6973 8.60716 12.7001 8.60771 12.7057 8.60716C12.7394 8.60716 12.7018 8.60771 12.7338 8.60716M12.7338 8.60716C12.7355 8.607 12.7338 8.60743 12.7338 8.60716Z" stroke="#8D8D8D" stroke-width="0.138127"/>
<path d="M12.6485 8.47802C12.6542 8.47802 12.6597 8.48354 12.6653 8.48898C12.6681 8.48953 12.7104 8.48948 12.7104 8.48948C12.7329 8.48953 12.7553 8.48948 12.7761 8.48948C12.7986 8.4897 12.8097 8.48397 12.7872 8.52752C12.7867 8.52752 12.7535 8.52752 12.7423 8.52752C12.7198 8.5384 12.7031 8.50028 12.6806 8.50028C12.675 8.50082 12.6694 8.50576 12.6638 8.50576C12.6582 8.50576 12.6524 8.51124 12.6412 8.51124C12.6131 8.48947 12.5963 8.44969 12.63 8.4252C12.6356 8.41975 12.6469 8.41984 12.6525 8.4144C12.6581 8.41435 12.6693 8.4089 12.6749 8.41407C12.6806 8.41951 12.6973 8.44671 12.7142 8.43583C12.7423 8.4195 12.72 8.40318 12.7593 8.41407C12.8098 8.43584 12.748 8.48157 12.7255 8.46905C12.7199 8.46361 12.7143 8.45273 12.7087 8.44729C12.6919 8.4364 12.6694 8.46909 12.6638 8.47453C12.6245 8.47453 12.585 8.4418 12.6187 8.40261C12.6232 8.39716 12.6301 8.39725 12.6357 8.39181C12.6407 8.39181 12.675 8.38085 12.6806 8.38085C12.6918 8.38629 12.6919 8.40805 12.7087 8.40261C12.7199 8.40261 12.7199 8.38081 12.7255 8.37537C12.7294 8.37537 12.7648 8.37537 12.7704 8.37537C12.821 8.37537 12.867 8.43318 12.7929 8.45277C12.7817 8.45277 12.7267 8.45818 12.7228 8.44729C12.6947 8.39232 12.7283 8.43093 12.7181 8.42005C12.7187 8.40916 12.7142 8.39825 12.7204 8.39281C12.7254 8.38736 12.7901 8.39829 12.7991 8.39829L12.7929 8.45277C12.7873 8.45277 12.7373 8.44891 12.7317 8.44347C12.7266 8.43803 12.7238 8.43093 12.7181 8.42005C12.7238 8.43093 12.716 8.4108 12.7317 8.39447C12.7351 8.38903 12.771 8.39991 12.7823 8.39447C12.7991 8.39474 12.7766 8.39449 12.7766 8.42171C12.7767 8.42715 12.7823 8.43254 12.7879 8.43799C12.7879 8.43826 12.7882 8.43853 12.7879 8.43799C12.7823 8.43254 12.7783 8.43251 12.7727 8.43251C12.7699 8.43223 12.7391 8.42702 12.7391 8.42702C12.7278 8.42158 12.7278 8.39978 12.7166 8.39978C12.7054 8.39978 12.7109 8.42162 12.6996 8.43251C12.694 8.43795 12.6828 8.43211 12.6772 8.43782C12.6659 8.43782 12.6885 8.41058 12.6604 8.41058C12.6637 8.41058 12.6693 8.41407 12.6749 8.41407C12.6806 8.41951 12.6973 8.44671 12.7142 8.43583C12.7198 8.43039 12.7226 8.42147 12.7283 8.41058C12.7395 8.39969 12.8222 8.41059 12.7396 8.45958C12.7452 8.45958 12.739 8.45998 12.7356 8.45427C12.73 8.44338 12.7299 8.43247 12.7243 8.42702C12.7075 8.4107 12.6963 8.44882 12.6907 8.45427C12.6879 8.45971 12.6794 8.45958 12.6794 8.45958C12.6783 8.45936 12.6805 8.46067 12.6794 8.45958C12.6791 8.45958 12.67 8.43183 12.6761 8.4536C12.6756 8.47537 12.6795 8.50037 12.7104 8.48948C12.716 8.48948 12.7211 8.48084 12.7267 8.48084C12.7323 8.48084 12.7379 8.48084 12.7435 8.48084C12.7547 8.48084 12.7884 8.48084 12.7884 8.48084C12.8109 8.52439 12.7996 8.51905 12.7771 8.51905C12.7546 8.51905 12.7322 8.51899 12.7115 8.51905C12.7103 8.51905 12.6665 8.51905 12.6665 8.51954C12.6609 8.51954 12.6554 8.5249 12.6497 8.53034L12.6485 8.47802Z" fill="#8D8D8D"/>
<path d="M12.7104 8.48948C12.7104 8.48948 12.6681 8.48953 12.6653 8.48898C12.6597 8.48354 12.6542 8.47802 12.6485 8.47802L12.6497 8.53034C12.6554 8.5249 12.6609 8.51954 12.6665 8.51954C12.6665 8.51905 12.7103 8.51905 12.7115 8.51905C12.7322 8.51899 12.7546 8.51905 12.7771 8.51905C12.7996 8.51905 12.8109 8.52439 12.7884 8.48084C12.7884 8.48084 12.7547 8.48084 12.7435 8.48084C12.7379 8.48084 12.7323 8.48084 12.7267 8.48084C12.7211 8.48084 12.716 8.48948 12.7104 8.48948ZM12.7104 8.48948C12.7329 8.48953 12.7553 8.48948 12.7761 8.48948C12.7986 8.4897 12.8097 8.48397 12.7872 8.52752C12.7867 8.52752 12.7535 8.52752 12.7423 8.52752C12.7198 8.5384 12.7031 8.50028 12.6806 8.50028C12.675 8.50082 12.6694 8.50576 12.6638 8.50576C12.6582 8.50576 12.6524 8.51124 12.6412 8.51124C12.6131 8.48947 12.5963 8.44969 12.63 8.4252C12.6356 8.41975 12.6469 8.41984 12.6525 8.4144C12.6581 8.41435 12.6693 8.4089 12.6749 8.41407M12.7104 8.48948C12.6795 8.50037 12.6756 8.47537 12.6761 8.4536C12.67 8.43183 12.6791 8.45958 12.6794 8.45958M12.6749 8.41407C12.6806 8.41951 12.6973 8.44671 12.7142 8.43583M12.6749 8.41407C12.6693 8.41407 12.6637 8.41058 12.6604 8.41058C12.6885 8.41058 12.6659 8.43782 12.6772 8.43782C12.6828 8.43211 12.694 8.43795 12.6996 8.43251C12.7109 8.42162 12.7054 8.39978 12.7166 8.39978C12.7278 8.39978 12.7278 8.42158 12.7391 8.42702C12.7391 8.42702 12.7699 8.43223 12.7727 8.43251C12.7783 8.43251 12.7823 8.43254 12.7879 8.43799M12.7142 8.43583C12.7423 8.4195 12.72 8.40318 12.7593 8.41407C12.8098 8.43584 12.748 8.48157 12.7255 8.46905C12.7199 8.46361 12.7143 8.45273 12.7087 8.44729C12.6919 8.4364 12.6694 8.46909 12.6638 8.47453C12.6245 8.47453 12.585 8.4418 12.6187 8.40261C12.6232 8.39716 12.6301 8.39725 12.6357 8.39181C12.6407 8.39181 12.675 8.38085 12.6806 8.38085C12.6918 8.38629 12.6919 8.40805 12.7087 8.40261C12.7199 8.40261 12.7199 8.38081 12.7255 8.37537C12.7294 8.37537 12.7648 8.37537 12.7704 8.37537C12.821 8.37537 12.867 8.43318 12.7929 8.45277M12.7142 8.43583C12.7198 8.43039 12.7226 8.42147 12.7283 8.41058C12.7395 8.39969 12.8222 8.41059 12.7396 8.45958C12.7452 8.45958 12.739 8.45998 12.7356 8.45427C12.73 8.44338 12.7299 8.43247 12.7243 8.42702C12.7075 8.4107 12.6963 8.44882 12.6907 8.45427C12.6879 8.45971 12.6794 8.45958 12.6794 8.45958M12.7929 8.45277C12.7817 8.45277 12.7267 8.45818 12.7228 8.44729C12.6947 8.39232 12.7283 8.43093 12.7181 8.42005M12.7929 8.45277L12.7991 8.39829C12.7901 8.39829 12.7254 8.38736 12.7204 8.39281C12.7142 8.39825 12.7187 8.40916 12.7181 8.42005M12.7929 8.45277C12.7873 8.45277 12.7373 8.44891 12.7317 8.44347C12.7266 8.43803 12.7238 8.43093 12.7181 8.42005M12.7181 8.42005C12.7238 8.43093 12.716 8.4108 12.7317 8.39447C12.7351 8.38903 12.771 8.39991 12.7823 8.39447C12.7991 8.39474 12.7766 8.39449 12.7766 8.42171C12.7767 8.42715 12.7823 8.43254 12.7879 8.43799M12.7879 8.43799C12.7882 8.43853 12.7879 8.43826 12.7879 8.43799ZM12.6794 8.45958C12.6783 8.45936 12.6805 8.46067 12.6794 8.45958Z" stroke="#8D8D8D" stroke-width="0.138127"/>
<path d="M31.6697 10.3369C31.8678 10.5135 32.1055 10.7168 32.3689 10.9111L32.8562 11.2705C32.6931 11.6486 32.5766 12.0223 32.4919 12.3691C32.3487 11.7235 32.097 11.0008 31.6697 10.3369Z" fill="#8D8D8D" stroke="#8D8D8D" stroke-width="5.5297"/>
<path d="M50.8684 24.3202L49.6008 24.3134C49.5991 24.3055 49.5976 24.2977 49.5959 24.2899L50.3 24.286L50.2991 24.2128L50.8684 24.3202Z" fill="#8D8D8D" stroke="#8D8D8D" stroke-width="5.5297"/>
<mask id="path-8-inside-1_191_518" fill="white">
<path fill-rule="evenodd" clip-rule="evenodd" d="M71.1639 13.7026C71.9502 9.486 76.6083 9.56309 77.2054 13.7135L71.1639 13.7026ZM81.4753 18.6604C78.141 19.8253 72.4677 22.078 71.154 17.3512L82.2913 17.1492C82.5104 12.1722 80.9676 8.36956 77.3347 6.94478C67.75 3.19032 61.8579 16.7545 68.9643 22.521C71.9502 24.947 77.7229 25.4092 80.8481 22.8482C81.3459 21.8567 81.4454 20.1237 81.4653 18.6604H81.4753Z"/>
</mask>
<path fill-rule="evenodd" clip-rule="evenodd" d="M71.1639 13.7026C71.9502 9.486 76.6083 9.56309 77.2054 13.7135L71.1639 13.7026ZM81.4753 18.6604C78.141 19.8253 72.4677 22.078 71.154 17.3512L82.2913 17.1492C82.5104 12.1722 80.9676 8.36956 77.3347 6.94478C67.75 3.19032 61.8579 16.7545 68.9643 22.521C71.9502 24.947 77.7229 25.4092 80.8481 22.8482C81.3459 21.8567 81.4454 20.1237 81.4653 18.6604H81.4753Z" fill="#8D8D8D"/>
<path d="M71.1639 13.7026L65.7279 12.6889L64.51 19.2202L71.1539 19.2323L71.1639 13.7026ZM77.2054 13.7135L77.1954 19.2432L83.5894 19.2548L82.6788 12.926L77.2054 13.7135ZM81.4753 18.6604L83.299 23.8807L81.4753 13.1307V18.6604ZM71.154 17.3512L71.0537 11.8224L63.914 11.9519L65.8262 18.832L71.154 17.3512ZM82.2913 17.1492L82.3916 22.678L87.5872 22.5838L87.8157 17.3924L82.2913 17.1492ZM77.3347 6.94478L79.3537 1.79684L79.3516 1.796L77.3347 6.94478ZM68.9643 22.521L72.4512 18.2293L72.4485 18.2271L68.9643 22.521ZM80.8481 22.8482L84.353 27.1254L85.2625 26.38L85.7901 25.3291L80.8481 22.8482ZM81.4653 18.6604V13.1307H76.0103L75.9361 18.5853L81.4653 18.6604ZM71.1639 13.7026L76.5999 14.7162C76.6149 14.636 76.5661 14.9749 76.134 15.3793C75.6993 15.786 75.0203 16.1066 74.2101 16.0999C73.3984 16.0933 72.6981 15.759 72.2395 15.3073C71.7838 14.8584 71.7276 14.4697 71.7321 14.501L77.2054 13.7135L82.6788 12.926C82.0767 8.74133 78.9318 5.07901 74.3011 5.0409C69.6994 5.00303 66.4969 8.56506 65.7279 12.6889L71.1639 13.7026ZM77.2054 13.7135L77.2155 8.18383L71.1739 8.17286L71.1639 13.7026L71.1539 19.2323L77.1954 19.2432L77.2054 13.7135ZM81.4753 18.6604L79.6515 13.4401C78.7135 13.7678 77.9272 14.0573 77.0767 14.3081C76.2306 14.5575 75.6266 14.6717 75.2313 14.6951C74.8092 14.72 75.0699 14.6149 75.5768 14.9019C75.8547 15.0593 76.1024 15.279 76.2835 15.5239C76.4555 15.7564 76.4926 15.9096 76.4817 15.8704L71.154 17.3512L65.8262 18.832C66.4886 21.2152 67.9063 23.2678 70.1272 24.5254C72.1716 25.6831 74.3054 25.8283 75.8826 25.7353C78.843 25.5606 81.9755 24.3431 83.299 23.8807L81.4753 18.6604ZM71.154 17.3512L71.2542 22.88L82.3916 22.678L82.2913 17.1492L82.1911 11.6204L71.0537 11.8224L71.154 17.3512ZM82.2913 17.1492L87.8157 17.3924C88.0767 11.4634 86.2629 4.50658 79.3537 1.79684L77.3347 6.94478L75.3157 12.0927C75.6861 12.238 75.9707 12.4589 76.2415 13.0424C76.5681 13.7462 76.8514 14.989 76.767 16.906L82.2913 17.1492ZM77.3347 6.94478L79.3516 1.796C75.6218 0.335 71.8798 0.465637 68.6482 1.97155C65.5285 3.42537 63.2746 5.97136 61.9236 8.73163C59.3163 14.0587 59.4298 21.9055 65.48 26.8149L68.9643 22.521L72.4485 18.2271C71.3923 17.3701 70.8987 15.5515 71.857 13.5935C72.2889 12.7112 72.861 12.2097 73.3197 11.9959C73.6665 11.8343 74.2553 11.6773 75.3179 12.0936L77.3347 6.94478ZM68.9643 22.521L65.4774 26.8128C68.0888 28.9345 71.4997 29.94 74.607 30.0789C77.7035 30.2174 81.4203 29.5285 84.353 27.1254L80.8481 22.8482L77.3433 18.5711C77.1507 18.729 76.4185 19.0894 75.1009 19.0305C73.7941 18.9721 72.8257 18.5335 72.4512 18.2293L68.9643 22.521ZM80.8481 22.8482L85.7901 25.3291C86.4741 23.9665 86.7136 22.5209 86.8255 21.5958C86.9504 20.5645 86.9836 19.5361 86.9945 18.7356L81.4653 18.6604L75.9361 18.5853C75.9271 19.248 75.9006 19.8178 75.8463 20.2667C75.8199 20.485 75.794 20.6121 75.7812 20.6644C75.7646 20.7318 75.7876 20.6036 75.9062 20.3674L80.8481 22.8482ZM81.4653 18.6604V24.1901H81.4753V18.6604V13.1307H81.4653V18.6604Z" fill="#8D8D8D" mask="url(#path-8-inside-1_191_518)"/>
<mask id="path-10-inside-2_191_518" fill="white">
<path fill-rule="evenodd" clip-rule="evenodd" d="M99.2216 6.7904L93.847 6.88674L90.3934 18.2175L87.049 6.78076L81.7343 6.79172C81.9034 8.2839 86.9695 23.0033 87.7259 24.2837L93.3194 24.3109L99.2315 6.7997L99.2216 6.7904Z"/>
</mask>
<path fill-rule="evenodd" clip-rule="evenodd" d="M99.2216 6.7904L93.847 6.88674L90.3934 18.2175L87.049 6.78076L81.7343 6.79172C81.9034 8.2839 86.9695 23.0033 87.7259 24.2837L93.3194 24.3109L99.2315 6.7997L99.2216 6.7904Z" fill="#8D8D8D"/>
<path d="M99.2216 6.7904L102.999 2.75213L101.363 1.22142L99.1225 1.26158L99.2216 6.7904ZM93.847 6.88674L93.7479 1.35792L89.7293 1.42995L88.5575 5.27453L93.847 6.88674ZM90.3934 18.2175L85.086 19.7695L90.2836 37.544L95.6829 19.8297L90.3934 18.2175ZM87.049 6.78076L92.3565 5.22875L91.1908 1.2425L87.0376 1.25107L87.049 6.78076ZM81.7343 6.79172L81.7228 1.26203L75.544 1.27478L76.2397 7.41439L81.7343 6.79172ZM87.7259 24.2837L82.9649 27.0962L84.561 29.798L87.699 29.8133L87.7259 24.2837ZM93.3194 24.3109L93.2925 29.8405L97.2823 29.86L98.5586 26.0797L93.3194 24.3109ZM99.2315 6.7997L104.471 8.56853L105.61 5.19432L103.009 2.76143L99.2315 6.7997ZM99.2216 6.7904L99.1225 1.26158L93.7479 1.35792L93.847 6.88674L93.9461 12.4156L99.3207 12.3192L99.2216 6.7904ZM93.847 6.88674L88.5575 5.27453L85.1039 16.6053L90.3934 18.2175L95.6829 19.8297L99.1364 8.49894L93.847 6.88674ZM90.3934 18.2175L95.7008 16.6655L92.3565 5.22875L87.049 6.78076L81.7416 8.33277L85.086 19.7695L90.3934 18.2175ZM87.049 6.78076L87.0376 1.25107L81.7228 1.26203L81.7343 6.79172L81.7457 12.3214L87.0604 12.3105L87.049 6.78076ZM81.7343 6.79172L76.2397 7.41439C76.3224 8.14378 76.568 9.00245 76.6915 9.43546C76.8688 10.0575 77.1017 10.8176 77.3645 11.646C77.8923 13.3102 78.5798 15.3736 79.2797 17.4125C79.9799 19.452 80.7037 21.5 81.3063 23.1337C81.6063 23.9472 81.8864 24.6856 82.1243 25.2799C82.2939 25.7038 82.6124 26.4996 82.9649 27.0962L87.7259 24.2837L92.4869 21.4711C92.6502 21.7476 92.6451 21.8034 92.3922 21.1713C92.2075 20.7098 91.9664 20.0765 91.6825 19.3067C91.1171 17.7738 90.422 15.8086 89.7399 13.8217C89.0577 11.8342 88.3997 9.85797 87.9064 8.30259C87.6586 7.5212 87.462 6.87654 87.327 6.403C87.1381 5.74044 87.1884 5.81271 87.2288 6.16906L81.7343 6.79172ZM87.7259 24.2837L87.699 29.8133L93.2925 29.8405L93.3194 24.3109L93.3464 18.7813L87.7528 18.754L87.7259 24.2837ZM93.3194 24.3109L98.5586 26.0797L104.471 8.56853L99.2315 6.7997L93.9924 5.03086L88.0803 22.5421L93.3194 24.3109ZM99.2315 6.7997L103.009 2.76143L102.999 2.75213L99.2216 6.7904L95.444 10.8287L95.454 10.838L99.2315 6.7997Z" fill="#8D8D8D" mask="url(#path-10-inside-2_191_518)"/>
</svg>
