<svg width="108" height="25" viewBox="0 0 108 25" fill="none" xmlns="http://www.w3.org/2000/svg">
<path d="M17.658 19.0745H17.964V24.5715H17.064C11.214 24.5715 7.83 21.2482 7.83 15.8051V13.0027L9.738 12.5176C10.296 12.3739 10.8 12.0865 11.196 11.6733C11.592 11.2602 11.862 10.7392 11.988 10.1823C12.114 9.62543 12.06 9.03261 11.862 8.49369C11.664 7.95477 11.322 7.4877 10.872 7.12842C10.422 6.76914 9.882 6.55357 9.306 6.49968C8.73 6.44579 8.154 6.5356 7.65 6.7871C7.128 7.0386 6.696 7.43381 6.39 7.91884C6.084 8.40387 5.922 8.96076 5.922 9.53561V21.5176H0V9.338C0 8.97872 0.0179999 8.60147 0.0719999 8.24219C0.63 3.91285 4.41 0.571533 8.982 0.571533C13.14 0.571533 16.632 3.32003 17.658 7.05656C18.198 9.01465 18.018 11.0985 17.172 12.9488C16.452 14.5117 15.282 15.823 13.824 16.7212C14.328 18.7152 15.354 19.0745 17.658 19.0745ZM32.31 8.51165V11.8709H31.752C30.6 11.8709 29.7 12.1943 29.052 12.823C28.404 13.4518 28.08 14.314 28.08 15.4099V21.4638H24.822V8.70926H28.08V10.362C29.052 9.12243 30.276 8.51165 31.752 8.51165H32.31ZM46.296 16.2721H36.414C36.612 17.0446 37.08 17.7272 37.728 18.1943C38.412 18.6793 39.24 18.9308 40.068 18.8949C40.77 18.8949 41.472 18.7512 42.102 18.4458C42.678 18.1943 43.182 17.7991 43.56 17.314L45.738 19.2182C45.054 20.0266 44.19 20.6733 43.218 21.1045C42.192 21.5536 41.076 21.7871 39.942 21.7691C38.682 21.7871 37.422 21.4817 36.306 20.8889C35.244 20.332 34.38 19.4877 33.768 18.4637C33.174 17.4218 32.85 16.2542 32.85 15.0685C32.85 13.8829 33.156 12.6973 33.732 11.6554C34.308 10.6494 35.154 9.82303 36.18 9.26615C37.242 8.6913 38.43 8.3859 39.636 8.40387C41.544 8.40387 43.146 9.03261 44.424 10.3081C45.702 11.5835 46.35 13.1823 46.35 15.1045C46.386 15.4997 46.35 15.8769 46.296 16.2721ZM41.706 11.9787C41.112 11.5117 40.392 11.2602 39.636 11.2602C38.88 11.2602 38.16 11.5117 37.566 11.9787C36.972 12.4638 36.558 13.1464 36.378 13.8829H42.894C42.732 13.1284 42.3 12.4638 41.706 11.9787ZM67.248 9.71525C68.112 10.5775 68.562 11.7272 68.562 13.1823V21.4817H65.304V14.1524C65.304 13.362 65.07 12.7512 64.62 12.2841C64.17 11.817 63.558 11.5835 62.802 11.5835C62.01 11.5835 61.362 11.817 60.858 12.3021C60.354 12.7871 60.12 13.4158 60.12 14.2063V21.4817H56.862V14.1524C56.862 13.3799 56.628 12.7512 56.178 12.2841C55.71 11.817 55.098 11.5835 54.342 11.5835C53.982 11.5655 53.64 11.6194 53.298 11.7452C52.974 11.8709 52.668 12.0685 52.398 12.3021C52.146 12.5536 51.948 12.841 51.822 13.1823C51.696 13.5057 51.642 13.8649 51.642 14.2063V21.4817H48.384V8.72722H51.66V10.0386C52.614 8.96075 53.874 8.42183 55.44 8.42183C56.268 8.40387 57.078 8.58351 57.816 8.96075C58.5 9.32004 59.058 9.84099 59.454 10.4877C60.516 9.10447 61.956 8.40387 63.792 8.40387C65.232 8.42183 66.384 8.85297 67.248 9.71525ZM84.132 15.0865C84.132 16.9907 83.484 18.5715 82.17 19.847C80.856 21.1224 79.236 21.7691 77.274 21.7512C75.33 21.7512 73.692 21.1045 72.378 19.829C71.064 18.5536 70.398 16.9727 70.398 15.0685C70.398 13.1643 71.064 11.5835 72.378 10.3081C73.692 9.03261 75.33 8.38591 77.274 8.38591C79.218 8.38591 80.856 9.03261 82.17 10.3081C83.484 11.6015 84.15 13.2003 84.132 15.0865ZM79.794 17.6194C80.424 16.9368 80.784 16.0386 80.784 15.1045C80.784 14.1703 80.424 13.2721 79.794 12.5895C79.47 12.2661 79.074 11.9967 78.642 11.817C78.21 11.6374 77.76 11.5476 77.292 11.5476C76.824 11.5476 76.374 11.6374 75.942 11.817C75.51 11.9967 75.114 12.2482 74.79 12.5895C74.142 13.2721 73.782 14.1703 73.782 15.1045C73.782 16.0386 74.142 16.9368 74.79 17.6194C75.456 18.2661 76.356 18.6254 77.292 18.6254C78.228 18.6075 79.128 18.2482 79.794 17.6194ZM90.09 11.6913V16.9907C90.09 18.0865 90.684 18.6254 91.854 18.6254C92.43 18.6075 93.006 18.4637 93.528 18.1943V21.2302C92.79 21.6075 91.98 21.8051 91.152 21.7871C89.73 21.7871 88.65 21.4099 87.93 20.6554C87.21 19.9009 86.85 18.859 86.85 17.5296V11.7093H84.816V8.74519H86.85V6.62542L90.108 5.51166V8.74519H93.546V11.7093H90.09V11.6913ZM107.928 16.2721H98.046C98.244 17.0446 98.712 17.7272 99.36 18.1943C100.044 18.6793 100.872 18.9308 101.7 18.8949C102.402 18.8949 103.104 18.7512 103.734 18.4458C104.31 18.1943 104.814 17.7991 105.21 17.314L107.388 19.2182C106.704 20.0266 105.84 20.6733 104.868 21.1045C103.842 21.5536 102.726 21.7871 101.592 21.7691C100.332 21.7871 99.072 21.4817 97.956 20.8889C96.894 20.332 96.03 19.4877 95.418 18.4637C94.824 17.4218 94.5 16.2542 94.5 15.0685C94.5 13.8829 94.806 12.6973 95.382 11.6554C95.958 10.6494 96.804 9.82303 97.83 9.26615C98.892 8.6913 100.08 8.3859 101.286 8.40387C103.194 8.40387 104.796 9.03261 106.074 10.3081C107.352 11.5835 108 13.1823 108 15.1045C108 15.4997 107.982 15.8949 107.928 16.2721ZM103.338 11.9787C102.744 11.5117 102.024 11.2602 101.268 11.2602C100.512 11.2602 99.792 11.5117 99.198 11.9787C98.604 12.4638 98.19 13.1464 98.01 13.8829H104.526C104.364 13.1284 103.932 12.4638 103.338 11.9787Z" fill="#403D36"/>
</svg>
