<svg width="51" height="29" viewBox="0 0 51 29" fill="none" xmlns="http://www.w3.org/2000/svg">
<path fill-rule="evenodd" clip-rule="evenodd" d="M25.866 0.571411C39.7397 0.571411 51.0001 6.8447 51.0001 14.572C51.0001 22.3005 39.7397 28.5714 25.866 28.5714C11.9981 28.5714 0.737793 22.3005 0.737793 14.572C0.737793 6.8447 11.9981 0.571411 25.866 0.571411ZM25.866 1.83426C12.6997 1.83426 2.00648 7.55212 2.00648 14.572C2.00648 21.5948 12.6997 27.2992 25.866 27.2992C39.0323 27.2992 49.7255 21.5948 49.7255 14.572C49.7255 7.55212 39.0323 1.83426 25.866 1.83426ZM21.4519 15.9161H16.5058C16.5642 17.1333 17.2483 17.6975 18.2714 17.6975C19.0315 17.6975 19.5518 17.2696 19.6863 16.8387H21.3057C20.8906 18.3114 19.6863 18.9931 18.2013 18.9931C16.0965 18.9931 14.7869 17.5449 14.7869 15.4765C14.7869 13.4729 16.1725 11.9469 18.2013 11.9469C20.4814 11.9469 21.5805 13.8605 21.4519 15.9161ZM18.1545 13.2086C17.1255 13.2086 16.5993 13.8932 16.5175 14.769H19.7272C19.6044 13.8342 19.2127 13.2086 18.1545 13.2086ZM42.8676 15.9161H37.9215C37.9741 17.1333 38.664 17.6975 39.6813 17.6975C40.4471 17.6975 40.9675 17.2696 41.1019 16.8387H42.7214C42.3063 18.3114 41.1019 18.9931 39.6169 18.9931C37.5064 18.9931 36.2026 17.5449 36.2026 15.4765C36.2026 13.4729 37.5882 11.9469 39.6169 11.9469C41.8971 11.9469 42.9962 13.8605 42.8676 15.9161ZM39.5643 13.2086C38.5412 13.2086 38.015 13.8932 37.9273 14.769H41.1429C41.0201 13.8342 40.6284 13.2086 39.5643 13.2086ZM6.1341 18.8119H7.9699V14.8298H11.9338V18.8119H13.7696V9.56331H11.9338V13.3501H7.9699V9.56331H6.1341V18.8119ZM22.4633 18.8119H24.1939V15.1964C24.1939 13.8388 24.6733 13.2828 25.6672 13.2828C26.5208 13.2828 26.9067 13.826 26.9067 14.9245V18.8119H28.6314V14.7006C28.6314 13.0461 28.1403 11.9469 26.1817 11.9469C25.41 11.9469 24.6032 12.3094 24.1413 13.0589H24.1004V12.1282H22.4633V18.8119ZM30.1047 18.8119H31.8294V15.1923L34.3785 18.8119H36.5242L33.7178 15.0613L36.2026 12.1282H34.1446L31.8294 15.0099V9.56331H30.1047V18.8119ZM43.879 18.8119H45.6037V9.56331H43.879V18.8119Z" fill="#8D8D8D"/>
<path d="M25.8657 0.630005C32.7945 0.630005 39.0679 2.19721 43.6069 4.72571C48.1479 7.25531 50.9409 10.7398 50.9409 14.5724C50.9407 18.4054 48.1477 21.889 43.6069 24.4181C39.0679 26.9462 32.7945 28.5128 25.8657 28.5128C18.94 28.5128 12.6686 26.9461 8.13037 24.4181C3.59027 21.889 0.796577 18.4054 0.796387 14.5724C0.796387 10.7398 3.59011 7.25531 8.13037 4.72571C12.6686 2.19727 18.9401 0.630047 25.8657 0.630005ZM18.2017 11.8878C16.1376 11.8878 14.728 13.4435 14.728 15.4767C14.7281 16.5233 15.06 17.4176 15.6626 18.0509C16.2655 18.6845 17.1353 19.0519 18.2017 19.0519C18.9526 19.0518 19.6368 18.8798 20.187 18.5177C20.7381 18.155 21.1516 17.6039 21.3628 16.8546L21.3833 16.7794H19.6431L19.6304 16.8214C19.5048 17.2234 19.0099 17.6388 18.271 17.6388C17.7704 17.6387 17.3601 17.5006 17.0679 17.2208C16.7856 16.9506 16.6078 16.541 16.5698 15.9747H21.5073L21.5103 15.92C21.5752 14.8815 21.3304 13.8748 20.7769 13.1261C20.222 12.3757 19.36 11.8879 18.2017 11.8878ZM39.6167 11.8878C37.5527 11.8879 36.144 13.4436 36.144 15.4767C36.1441 16.5232 36.4738 17.4176 37.0757 18.0509C37.6779 18.6846 38.5475 19.0518 39.6167 19.0519C40.3679 19.0519 41.0527 18.8799 41.603 18.5177C42.1541 18.155 42.5667 17.6038 42.7778 16.8546L42.7993 16.7794H41.0591L41.0454 16.8214C40.9198 17.2232 40.426 17.6388 39.6812 17.6388C39.1833 17.6388 38.7724 17.5008 38.48 17.2208C38.1978 16.9506 38.0202 16.5408 37.9849 15.9747H42.9233L42.9263 15.92C42.9912 14.8816 42.7464 13.8748 42.1929 13.1261C41.6379 12.3756 40.7753 11.8878 39.6167 11.8878ZM6.07568 18.8712H8.02881V14.8888H11.8745V18.8712H13.8286V9.50403H11.8745V13.2911H8.02881V9.50403H6.07568V18.8712ZM30.0454 18.8712H31.8882V15.3771L34.3306 18.8458L34.3481 18.8712H36.6421L36.5718 18.7765L33.7925 15.0636L36.2476 12.1661L36.3296 12.0695H34.1167L34.0991 12.0909L31.8882 14.8419V9.50403H30.0454V18.8712ZM43.8198 18.8712H45.6626V9.50403H43.8198V18.8712ZM45.5444 9.62219V18.7531H43.938V9.62219H45.5444ZM36.0757 12.1866L33.6733 15.0236L33.6431 15.0587L33.6704 15.0968L36.4067 18.7531H34.4087L31.8774 15.1583L31.8345 15.0968L31.8755 15.047L34.1733 12.1866H36.0757ZM31.771 9.62219V18.7531H30.1636V9.62219H31.771ZM7.91064 9.62219V13.4093H11.9927V9.62219H13.7104V18.7531H11.9927V14.7706H7.91064V18.7531H6.19287V9.62219H7.91064ZM25.6675 13.2238C25.1594 13.2238 24.7701 13.367 24.5112 13.6945C24.2551 14.0187 24.1353 14.5132 24.1353 15.1964V18.7531H22.522V12.1866H24.0415V13.1183H24.1743L24.1919 13.09C24.6416 12.3603 25.428 12.006 26.1821 12.006C27.1502 12.0061 27.7416 12.2774 28.0942 12.7394C28.4495 13.205 28.5727 13.8766 28.5728 14.7003V18.7531H26.9653V14.9249C26.9653 14.3707 26.8681 13.9445 26.6538 13.6564C26.4369 13.365 26.1075 13.2238 25.6675 13.2238ZM18.1548 13.1495C17.6263 13.1495 17.2208 13.3258 16.938 13.6193C16.6562 13.9118 16.5003 14.3162 16.4585 14.7638L16.4526 14.8282H19.7944L19.7856 14.7618C19.7236 14.2896 19.5926 13.8849 19.3354 13.5988C19.0762 13.3103 18.6962 13.1496 18.1548 13.1495ZM39.564 13.1495C39.0386 13.1496 38.6357 13.3261 38.353 13.6193C38.0713 13.9116 37.9135 14.3154 37.8687 14.7628L37.8618 14.8282H41.2104L41.2017 14.7618C41.1396 14.2896 41.0084 13.885 40.7505 13.5988C40.4904 13.3102 40.1084 13.1495 39.564 13.1495ZM39.564 13.2677C40.0836 13.2677 40.4301 13.4199 40.6626 13.6779C40.8858 13.9255 41.0098 14.278 41.0737 14.7101H37.9946C38.0456 14.3089 38.1913 13.9564 38.437 13.7013C38.695 13.4335 39.0667 13.2678 39.564 13.2677ZM18.1548 13.2677C18.6713 13.2678 19.0158 13.4199 19.2476 13.6779C19.4701 13.9255 19.5947 14.278 19.6587 14.7101H16.5845C16.6328 14.3088 16.7772 13.9564 17.0229 13.7013C17.2809 13.4335 17.6543 13.2677 18.1548 13.2677ZM49.6665 14.5724C49.6663 18.0512 47.0168 21.2169 42.7056 23.5167C38.3966 25.8153 32.4411 27.2404 25.8657 27.2404C19.2904 27.2403 13.3358 25.8153 9.02686 23.5167C4.71545 21.2169 2.06514 18.0513 2.06494 14.5724C2.06494 11.0948 4.71528 7.92513 9.02686 5.62219C13.3358 3.32077 19.2906 1.89274 25.8657 1.8927C32.4411 1.8927 38.3966 3.32064 42.7056 5.62219C47.0171 7.92513 49.6665 11.0948 49.6665 14.5724ZM50.2983 14.5714C50.2983 18.372 47.4783 21.6954 43.0034 24.0724C38.5307 26.4482 32.4178 27.8702 25.8657 27.8702C19.3137 27.8702 13.2021 26.4482 8.73096 24.0724C4.25777 21.6954 1.43994 18.3719 1.43994 14.5714C1.43995 10.7721 4.25779 7.44572 8.73096 5.06555C13.2021 2.68653 19.3137 1.2609 25.8657 1.26086C32.4178 1.26086 38.5307 2.6865 43.0034 5.06555C47.4783 7.44574 50.2983 10.772 50.2983 14.5714ZM14.8462 15.4767C14.8462 13.5027 16.2083 12.006 18.2017 12.006C19.3229 12.0061 20.1497 12.4755 20.6821 13.1954C21.2064 13.9044 21.4458 14.8602 21.394 15.8575H16.4438L16.4468 15.9191C16.4765 16.5379 16.6659 16.9993 16.9858 17.3058C17.3058 17.6122 17.749 17.7559 18.271 17.756C19.0283 17.756 19.5644 17.3418 19.7271 16.8976H21.2251C21.0154 17.5823 20.6302 18.0849 20.1226 18.4191C19.5957 18.7658 18.9353 18.9346 18.2017 18.9347C17.1634 18.9347 16.3256 18.5773 15.7476 17.9698C15.1692 17.362 14.8462 16.4984 14.8462 15.4767ZM36.2612 15.4767C36.2612 13.5028 37.6235 12.0061 39.6167 12.006C40.7382 12.006 41.5656 12.4754 42.0981 13.1954C42.6224 13.9044 42.8618 14.8602 42.8101 15.8575H37.8599L37.8628 15.9191C37.8896 16.5381 38.0789 16.9994 38.3989 17.3058C38.7189 17.6122 39.1619 17.756 39.6812 17.756C40.4441 17.756 40.9804 17.342 41.1431 16.8976H42.6401C42.4304 17.5823 42.0452 18.0849 41.5376 18.4191C41.0107 18.7657 40.3503 18.9347 39.6167 18.9347C38.5756 18.9346 37.7379 18.5773 37.1606 17.9698C36.5832 17.3621 36.2613 16.4983 36.2612 15.4767ZM28.6899 14.7003C28.6899 13.8699 28.5677 13.1646 28.188 12.6671C27.8055 12.1661 27.172 11.8879 26.1821 11.8878C25.4292 11.8878 24.6421 12.226 24.1597 12.9249V12.0695H22.4048V18.8712H24.2524V15.1964C24.2524 14.5224 24.3722 14.0599 24.604 13.7667C24.8333 13.4769 25.1818 13.3419 25.6675 13.3419C26.0806 13.342 26.3707 13.4722 26.5601 13.7267C26.7521 13.9848 26.8481 14.3806 26.8481 14.9249V18.8712H28.6899V14.7003ZM49.7847 14.5724C49.7847 11.0302 47.0877 7.82963 42.7612 5.51868C38.432 3.20634 32.4566 1.77551 25.8657 1.77551C19.275 1.77555 13.3003 3.20639 8.97119 5.51868C4.64458 7.82964 1.94775 11.0301 1.94775 14.5724C1.94795 18.116 4.64473 21.3133 8.97119 23.6212C13.3003 25.9305 19.275 27.3585 25.8657 27.3585C32.4566 27.3585 38.432 25.9306 42.7612 23.6212C47.0875 21.3133 49.7845 18.1159 49.7847 14.5724ZM50.4155 14.5714C50.4155 10.7078 47.5498 7.34969 43.0591 4.96106C38.5662 2.57127 32.4332 1.14368 25.8657 1.14368C19.2985 1.14371 13.1676 2.57141 8.67627 4.96106C4.187 7.3497 1.32179 10.7078 1.32178 14.5714C1.32178 18.4362 4.18698 21.7915 8.67627 24.1769C13.1676 26.5633 19.2986 27.9874 25.8657 27.9874C32.4331 27.9874 38.5662 26.5634 43.0591 24.1769C47.5498 21.7915 50.4155 18.4362 50.4155 14.5714Z" stroke="#8D8D8D" stroke-width="0.117761"/>
</svg>
