<svg width="127" height="29" viewBox="0 0 127 29" fill="none" xmlns="http://www.w3.org/2000/svg">
<path d="M20.6629 22.1582H21.0209V28.5714H19.9678C13.1223 28.5714 9.16243 24.6942 9.16243 18.3439V15.0744L11.3951 14.5085C12.0481 14.3409 12.6378 14.0055 13.1012 13.5235C13.5646 13.0415 13.8806 12.4337 14.028 11.784C14.1754 11.1343 14.1123 10.4427 13.8806 9.81392C13.6489 9.18518 13.2487 8.64028 12.7221 8.22112C12.1955 7.80195 11.5636 7.55046 10.8896 7.48758C10.2156 7.42471 9.54157 7.52949 8.9518 7.82291C8.34097 8.11632 7.83546 8.5774 7.47739 9.14327C7.11932 9.70914 6.92975 10.3588 6.92975 11.0295V25.0085H0V10.799C0 10.3798 0.021063 9.93967 0.0842522 9.52051C0.737207 4.46961 5.16045 0.571411 10.5105 0.571411C15.376 0.571411 19.4623 3.778 20.6629 8.13728C21.2948 10.4217 21.0841 12.8529 20.0942 15.0115C19.2516 16.8349 17.8825 18.3648 16.1764 19.4127C16.7662 21.7391 17.9668 22.1582 20.6629 22.1582ZM37.8082 9.83488V13.754H37.1552C35.8072 13.754 34.7541 14.1313 33.9958 14.8648C33.2375 15.5984 32.8584 16.6043 32.8584 17.8828V24.9457H29.046V10.0654H32.8584V11.9936C33.9958 10.5475 35.4281 9.83488 37.1552 9.83488H37.8082ZM54.1742 18.8888H42.6106C42.8423 19.79 43.3899 20.5864 44.1482 21.1313C44.9486 21.6972 45.9175 21.9906 46.8864 21.9487C47.7078 21.9487 48.5293 21.781 49.2665 21.4247C49.9405 21.1313 50.5303 20.6702 50.9726 20.1043L53.5212 22.3259C52.7208 23.269 51.7098 24.0235 50.5724 24.5265C49.3718 25.0505 48.0659 25.3229 46.7389 25.302C45.2645 25.3229 43.7901 24.9666 42.4842 24.275C41.2415 23.6253 40.2304 22.6403 39.5143 21.4457C38.8192 20.2301 38.4401 18.8678 38.4401 17.4846C38.4401 16.1014 38.7982 14.7181 39.4722 13.5025C40.1462 12.3289 41.1362 11.3648 42.3368 10.7151C43.5795 10.0445 44.9696 9.68818 46.3809 9.70913C48.6135 9.70913 50.4882 10.4427 51.9836 11.9307C53.4791 13.4187 54.2374 15.284 54.2374 17.5265C54.2795 17.9876 54.2374 18.4277 54.1742 18.8888ZM48.8031 13.8798C48.108 13.3349 47.2655 13.0415 46.3809 13.0415C45.4962 13.0415 44.6537 13.3349 43.9586 13.8798C43.2635 14.4457 42.7791 15.2421 42.5685 16.1014H50.1933C50.0037 15.2211 49.4982 14.4457 48.8031 13.8798ZM78.6916 11.2391C79.7026 12.2451 80.2292 13.5864 80.2292 15.284V24.9666H76.4168V16.4157C76.4168 15.4936 76.143 14.781 75.6164 14.2361C75.0898 13.6912 74.3737 13.4187 73.489 13.4187C72.5622 13.4187 71.804 13.6912 71.2142 14.257C70.6245 14.8229 70.3506 15.5564 70.3506 16.4786V24.9666H66.5382V16.4157C66.5382 15.5145 66.2644 14.781 65.7378 14.2361C65.1902 13.6912 64.474 13.4187 63.5894 13.4187C63.1681 13.3978 62.7679 13.4606 62.3677 13.6073C61.9886 13.754 61.6305 13.9846 61.3146 14.257C61.0197 14.5505 60.788 14.8858 60.6406 15.284C60.4931 15.6612 60.4299 16.0804 60.4299 16.4786V24.9666H56.6175V10.0864H60.451V11.6163C61.5673 10.3588 63.0417 9.73009 64.8742 9.73009C65.8431 9.70914 66.791 9.91872 67.6546 10.3588C68.455 10.778 69.1079 11.3858 69.5713 12.1403C70.814 10.5265 72.4991 9.70913 74.6475 9.70913C76.3325 9.73009 77.6806 10.2331 78.6916 11.2391ZM98.4488 17.5055C98.4488 19.7271 97.6905 21.5714 96.1529 23.0594C94.6153 24.5475 92.7196 25.302 90.4237 25.281C88.1489 25.281 86.2322 24.5265 84.6946 23.0385C83.157 21.5505 82.3776 19.7061 82.3776 17.4846C82.3776 15.263 83.157 13.4187 84.6946 11.9307C86.2322 10.4427 88.1489 9.68818 90.4237 9.68818C92.6985 9.68818 94.6153 10.4427 96.1529 11.9307C97.6905 13.4397 98.4698 15.3049 98.4488 17.5055ZM93.3726 20.4606C94.1098 19.6642 94.531 18.6163 94.531 17.5265C94.531 16.4367 94.1098 15.3888 93.3726 14.5924C92.9934 14.2151 92.53 13.9008 92.0245 13.6912C91.519 13.4816 90.9924 13.3768 90.4448 13.3768C89.8971 13.3768 89.3706 13.4816 88.8651 13.6912C88.3595 13.9008 87.8962 14.1942 87.517 14.5924C86.7588 15.3888 86.3375 16.4367 86.3375 17.5265C86.3375 18.6163 86.7588 19.6642 87.517 20.4606C88.2964 21.2151 89.3495 21.6343 90.4448 21.6343C91.5401 21.6133 92.5932 21.1942 93.3726 20.4606ZM105.421 13.5445V19.7271C105.421 21.0055 106.116 21.6343 107.485 21.6343C108.159 21.6133 108.833 21.4457 109.444 21.1313V24.6732C108.58 25.1133 107.632 25.3439 106.663 25.3229C104.999 25.3229 103.736 24.8828 102.893 24.0026C102.051 23.1223 101.629 21.9067 101.629 20.3558V13.5654H99.2492V10.1073H101.629V7.63429L105.442 6.33489V10.1073H109.465V13.5654H105.421V13.5445ZM126.294 18.8888H114.731C114.962 19.79 115.51 20.5864 116.268 21.1313C117.069 21.6972 118.037 21.9906 119.006 21.9487C119.828 21.9487 120.649 21.781 121.386 21.4247C122.06 21.1313 122.65 20.6702 123.114 20.1043L125.662 22.3259C124.862 23.269 123.851 24.0235 122.713 24.5265C121.513 25.0505 120.207 25.3229 118.88 25.302C117.406 25.3229 115.931 24.9666 114.625 24.275C113.382 23.6253 112.371 22.6403 111.655 21.4457C110.96 20.2301 110.581 18.8678 110.581 17.4846C110.581 16.1014 110.939 14.7181 111.613 13.5025C112.287 12.3289 113.277 11.3648 114.478 10.7151C115.72 10.0445 117.111 9.68818 118.522 9.70913C120.755 9.70913 122.629 10.4427 124.125 11.9307C125.62 13.4187 126.378 15.284 126.378 17.5265C126.378 17.9876 126.357 18.4487 126.294 18.8888ZM120.923 13.8798C120.228 13.3349 119.385 13.0415 118.501 13.0415C117.616 13.0415 116.774 13.3349 116.079 13.8798C115.383 14.4457 114.899 15.2421 114.688 16.1014H122.313C122.124 15.2211 121.618 14.4457 120.923 13.8798Z" fill="#F7F4ED"/>
</svg>
