<svg width="78" height="24" viewBox="0 0 78 24" fill="none" xmlns="http://www.w3.org/2000/svg">
<rect width="78" height="24" fill="#403D36"/>
<path d="M71.4227 11.266C71.3052 10.258 70.9578 9.37725 70.3804 8.6237C69.8128 7.87015 69.0593 7.28297 68.1198 6.86216C67.1803 6.44135 66.1038 6.23094 64.8903 6.23094C63.5789 6.23094 62.4339 6.47071 61.4553 6.95024C60.4767 7.42977 59.7133 8.10013 59.1653 8.96133C58.627 9.83232 58.3579 10.8452 58.3579 12C58.3579 13.1548 58.627 14.1628 59.1653 15.024C59.7133 15.895 60.4767 16.5702 61.4553 17.0497C62.4339 17.5293 63.5789 17.769 64.8903 17.769C66.1038 17.769 67.1803 17.5586 68.1198 17.1378C69.0593 16.717 69.8128 16.1298 70.3804 15.3763C70.9578 14.6227 71.3052 13.742 71.4227 12.734H67.6207C67.5326 13.1156 67.3711 13.4386 67.1363 13.7028C66.9014 13.9768 66.5931 14.1823 66.2115 14.3194C65.8396 14.4662 65.3992 14.5395 64.8903 14.5395C64.3227 14.5395 63.8334 14.4368 63.4223 14.2313C63.0211 14.0356 62.7128 13.7469 62.4975 13.3652C62.2822 12.9835 62.1746 12.5285 62.1746 12C62.1746 11.4715 62.2822 11.0165 62.4975 10.6348C62.7128 10.2629 63.0211 9.97422 63.4223 9.7687C63.8334 9.56319 64.3227 9.46043 64.8903 9.46043C65.3992 9.46043 65.8396 9.52405 66.2115 9.65127C66.5931 9.78828 66.9014 9.9889 67.1363 10.2531C67.3711 10.5271 67.5326 10.8648 67.6207 11.266H71.4227Z" fill="#F7F4ED"/>
<path d="M46.7249 6.49521V9.18156L53.316 15.2736L56.1638 14.613H46.7689V17.5195H57.6024V14.8332L51.026 8.74118L48.5892 9.40176H57.6464V6.49521H46.7249Z" fill="#F7F4ED"/>
<path d="M39.3302 17.5049C40.671 17.5049 41.8404 17.2749 42.8386 16.8149C43.8466 16.3648 44.6295 15.7287 45.1874 14.9066C45.7452 14.0846 46.0241 13.1157 46.0241 12.0001C46.0241 10.8942 45.7452 9.92536 45.1874 9.09352C44.6295 8.27146 43.8466 7.63046 42.8386 7.1705C41.8404 6.72033 40.671 6.49524 39.3302 6.49524H33.4878V17.5049H39.3302ZM37.2457 8.18339L35.5429 9.87153H39.6238C40.1621 9.87153 40.622 9.95471 41.0037 10.1211C41.3952 10.2972 41.6936 10.5419 41.8992 10.8551C42.1047 11.178 42.2074 11.5597 42.2074 12.0001C42.2074 12.4502 42.1047 12.8319 41.8992 13.1451C41.6936 13.4582 41.3952 13.698 41.0037 13.8644C40.622 14.0405 40.1621 14.1286 39.6238 14.1286H35.5429L37.2457 15.8167V8.18339Z" fill="#F7F4ED"/>
<path d="M23.3888 12.7928H27.0881C27.46 12.7928 27.7486 12.8808 27.9542 13.057C28.1597 13.2331 28.2624 13.4876 28.2624 13.8203C28.2624 14.1531 28.1597 14.4075 27.9542 14.5837C27.7486 14.7598 27.46 14.8479 27.0881 14.8479H22.8604L24.5632 16.5507V6.49524H20.7759V17.5049H27.6753C28.556 17.5049 29.3243 17.3483 29.9799 17.0351C30.6454 16.7318 31.1592 16.3061 31.5213 15.758C31.8932 15.21 32.0791 14.5641 32.0791 13.8203C32.0791 13.0961 31.8932 12.4551 31.5213 11.8973C31.1592 11.3493 30.6454 10.9236 29.9799 10.6202C29.3243 10.3168 28.556 10.1651 27.6753 10.1651H23.3888V12.7928ZM24.6806 11.6478H28.8643L32.5195 6.49524H28.189L24.6806 11.6478Z" fill="#F7F4ED"/>
<path d="M19.6422 11.266C19.5247 10.258 19.1773 9.37725 18.5999 8.6237C18.0323 7.87015 17.2788 7.28297 16.3393 6.86216C15.3998 6.44135 14.3233 6.23094 13.1098 6.23094C11.7984 6.23094 10.6534 6.47071 9.67477 6.95024C8.69614 7.42977 7.9328 8.10013 7.38477 8.96133C6.84652 9.83232 6.57739 10.8452 6.57739 12C6.57739 13.1548 6.84652 14.1628 7.38477 15.024C7.9328 15.895 8.69614 16.5702 9.67477 17.0497C10.6534 17.5293 11.7984 17.769 13.1098 17.769C14.3233 17.769 15.3998 17.5586 16.3393 17.1378C17.2788 16.717 18.0323 16.1298 18.5999 15.3763C19.1773 14.6227 19.5247 13.742 19.6422 12.734H15.8402C15.7521 13.1156 15.5906 13.4386 15.3557 13.7028C15.1209 13.9768 14.8126 14.1823 14.4309 14.3194C14.0591 14.4662 13.6187 14.5395 13.1098 14.5395C12.5422 14.5395 12.0529 14.4368 11.6418 14.2313C11.2406 14.0356 10.9323 13.7469 10.717 13.3652C10.5017 12.9835 10.3941 12.5285 10.3941 12C10.3941 11.4715 10.5017 11.0165 10.717 10.6348C10.9323 10.2629 11.2406 9.97422 11.6418 9.7687C12.0529 9.56319 12.5422 9.46043 13.1098 9.46043C13.6187 9.46043 14.0591 9.52405 14.4309 9.65127C14.8126 9.78828 15.1209 9.9889 15.3557 10.2531C15.5906 10.5271 15.7521 10.8648 15.8402 11.266H19.6422Z" fill="#F7F4ED"/>
</svg>
