<svg width="31" height="32" viewBox="0 0 31 32" fill="none" xmlns="http://www.w3.org/2000/svg">
<path d="M5.34055 5.80431C6.34474 6.60695 6.72145 6.5457 8.60704 6.42194L26.384 5.37173C26.7609 5.37173 26.4473 5.00166 26.3218 4.94015L23.3692 2.84025C22.8037 2.40816 22.0499 1.91329 20.6055 2.03708L3.39213 3.27232C2.76439 3.33357 2.63898 3.64237 2.88901 3.88992L5.34055 5.80431ZM6.40785 9.88038V28.2832C6.40785 29.2722 6.91018 29.6423 8.04083 29.5811L27.5775 28.4689C28.7087 28.4077 28.8347 27.7272 28.8347 26.9239V8.64461C28.8347 7.84247 28.5212 7.40989 27.8286 7.47163L7.41256 8.64461C6.65915 8.7069 6.40785 9.0777 6.40785 9.88038ZM25.6945 10.8676C25.8198 11.4239 25.6945 11.9798 25.1279 12.0423L24.1867 12.2268V25.8129C23.3692 26.2451 22.6157 26.4922 21.9877 26.4922C20.9822 26.4922 20.7304 26.1832 19.9772 25.2574L13.8199 15.747V24.9486L15.7683 25.3811C15.7683 25.3811 15.7683 26.4922 14.1964 26.4922L9.86281 26.7395C9.73692 26.4922 9.86281 25.8752 10.3024 25.7515L11.4332 25.4432V13.2771L9.86307 13.1533C9.73716 12.5969 10.0508 11.7947 10.9309 11.7325L15.5798 11.4242L21.9877 21.0583V12.5356L20.3539 12.3511C20.2285 11.671 20.7304 11.1771 21.3586 11.1159L25.6945 10.8676ZM1.94686 1.60498L19.8515 0.307731C22.0503 0.12219 22.6159 0.246474 23.998 1.23416L29.7131 5.18643C30.6563 5.86608 30.9706 6.05111 30.9706 6.79201V28.4689C30.9706 29.8272 30.4677 30.6308 28.709 30.7536L7.91645 31.9891C6.59632 32.051 5.96803 31.8658 5.2767 31.0006L1.0678 25.6279C0.31362 24.639 0 23.899 0 23.0334V3.76566C0 2.6547 0.503121 1.72802 1.94686 1.60498Z" fill="#385C78"/>
</svg>
