<svg width="45" height="45" viewBox="0 0 45 45" fill="none" xmlns="http://www.w3.org/2000/svg">
<path d="M9.77342 9.35052C11.0331 10.3739 11.5057 10.2958 13.8711 10.138L36.1713 8.79897C36.6441 8.79897 36.2508 8.32713 36.0933 8.24871L32.3895 5.57133C31.68 5.02041 30.7344 4.38945 28.9225 4.54728L7.32923 6.12222C6.54176 6.20031 6.38444 6.59403 6.69809 6.90966L9.77342 9.35052ZM11.1123 14.5475V38.0112C11.1123 39.2721 11.7424 39.744 13.1608 39.666L37.6686 38.2479C39.0876 38.1699 39.2457 37.3023 39.2457 36.2781V12.9719C39.2457 11.9492 38.8524 11.3976 37.9836 11.4764L12.3727 12.9719C11.4275 13.0513 11.1123 13.5241 11.1123 14.5475ZM35.3064 15.8062C35.4636 16.5155 35.3064 17.2243 34.5957 17.304L33.4149 17.5392V34.8615C32.3895 35.4126 31.4442 35.7276 30.6564 35.7276C29.395 35.7276 29.0791 35.3337 28.1344 34.1532L20.4103 22.0275V33.7596L22.8545 34.311C22.8545 34.311 22.8545 35.7276 20.8826 35.7276L15.4464 36.0429C15.2884 35.7276 15.4464 34.941 15.9978 34.7832L17.4164 34.3902V18.8783L15.4467 18.7205C15.2887 18.0111 15.6822 16.9883 16.7862 16.9089L22.618 16.5158L30.6564 28.7994V17.933L28.6069 17.6977C28.4496 16.8305 29.0791 16.2008 29.8673 16.1228L35.3064 15.8062ZM5.51621 3.99636L27.9767 2.34236C30.735 2.1058 31.4445 2.26426 33.1782 3.52356L40.3476 8.56272C41.5308 9.42927 41.925 9.66519 41.925 10.6098V38.2479C41.925 39.9798 41.2941 41.0043 39.0879 41.1609L13.0048 42.7362C11.3487 42.8151 10.5606 42.579 9.69332 41.4759L4.41347 34.6257C3.46739 33.3648 3.07397 32.4213 3.07397 31.3176V6.75123C3.07397 5.33475 3.70511 4.15323 5.51621 3.99636Z" fill="#385C78"/>
</svg>
